<svg width="21" height="20" viewBox="0 0 21 20" fill="none" xmlns="http://www.w3.org/2000/svg">
<path d="M5.68341 14.7861H15.5143C16.3767 14.7861 16.8078 14.7861 17.1593 14.6303C17.4691 14.4929 17.7343 14.2716 17.9249 13.9913C18.141 13.6735 18.2181 13.2492 18.3724 12.4008L19.5987 5.65635C19.6521 5.36228 19.6789 5.21524 19.6376 5.10043C19.6013 4.99971 19.5307 4.91503 19.438 4.86136C19.3325 4.80018 19.183 4.80018 18.8841 4.80018H4.3217M1.59814 1.16895H2.79319C3.0135 1.16895 3.12366 1.16895 3.21275 1.20919C3.29128 1.24466 3.35808 1.30174 3.40536 1.37377C3.45901 1.4555 3.47619 1.56431 3.51055 1.78193L6.04041 17.8043C6.07477 18.022 6.09195 18.1308 6.14559 18.2125C6.19287 18.2845 6.25968 18.3416 6.3382 18.3771C6.42729 18.4173 6.53745 18.4173 6.75777 18.4173H17.0309" stroke="#595657" stroke-width="1.65999" stroke-linecap="round" stroke-linejoin="round"/>
</svg>
