<svg width="16" height="15" viewBox="0 0 16 15" fill="none" xmlns="http://www.w3.org/2000/svg">
<path d="M7.90625 14.4062C11.7205 14.4062 14.8125 11.3142 14.8125 7.5C14.8125 3.68578 11.7205 0.59375 7.90625 0.59375C4.09203 0.59375 1 3.68578 1 7.5C1 11.3142 4.09203 14.4062 7.90625 14.4062Z" fill="#33B927"/>
<path d="M4.79844 7.5L6.87031 9.57188L11.0141 5.42813M14.8125 7.5C14.8125 11.3142 11.7205 14.4063 7.90625 14.4063C4.09203 14.4063 1 11.3142 1 7.5C1 3.68578 4.09203 0.59375 7.90625 0.59375C11.7205 0.59375 14.8125 3.68578 14.8125 7.5Z" stroke="white" stroke-linecap="round" stroke-linejoin="round"/>
</svg>
