<svg width="19" height="20" viewBox="0 0 19 20" fill="none" xmlns="http://www.w3.org/2000/svg">
<path d="M11.1292 6.08483C11.8516 6.22515 12.5155 6.57687 13.036 7.09498C13.5564 7.6131 13.9097 8.27404 14.0506 8.9932M11.1292 3.13965C12.6301 3.30564 14.0296 3.97474 15.0981 5.03709C16.1665 6.09944 16.8404 7.4919 17.009 8.98584M8.30171 11.8744C7.41302 10.9897 6.7113 9.9893 6.19654 8.92195C6.15226 8.83014 6.13012 8.78424 6.11311 8.72615C6.05267 8.51973 6.09609 8.26625 6.22183 8.09143C6.25721 8.04224 6.29948 8.00016 6.38403 7.91599C6.6426 7.65857 6.77188 7.52987 6.85641 7.40044C7.17517 6.91236 7.17517 6.28313 6.85641 5.79505C6.77188 5.66563 6.6426 5.53692 6.38403 5.27951L6.2399 5.13602C5.84685 4.74472 5.65032 4.54908 5.43925 4.44279C5.01948 4.23143 4.52376 4.23143 4.10399 4.4428C3.89292 4.54908 3.69639 4.74472 3.30334 5.13602L3.18675 5.25209C2.79504 5.64205 2.59919 5.83703 2.44961 6.10212C2.28362 6.39627 2.16428 6.85314 2.16529 7.19053C2.1662 7.49458 2.22544 7.70238 2.34393 8.11798C2.98071 10.3515 4.18217 12.459 5.94832 14.2173C7.71447 15.9755 9.83147 17.1716 12.075 17.8055C12.4924 17.9235 12.7012 17.9825 13.0066 17.9834C13.3455 17.9844 13.8044 17.8656 14.0999 17.7003C14.3661 17.5514 14.562 17.3565 14.9537 16.9665L15.0703 16.8504C15.4634 16.4591 15.6599 16.2635 15.7666 16.0534C15.979 15.6355 15.979 15.1419 15.7666 14.7241C15.6599 14.5139 15.4634 14.3183 15.0703 13.927L14.9262 13.7835C14.6676 13.5261 14.5383 13.3974 14.4083 13.3132C13.918 12.9959 13.286 12.9959 12.7957 13.3132C12.6657 13.3974 12.5364 13.5261 12.2779 13.7835C12.1933 13.8677 12.151 13.9097 12.1016 13.945C11.926 14.0702 11.6714 14.1134 11.4641 14.0532C11.4057 14.0363 11.3596 14.0142 11.2674 13.9701C10.1952 13.4577 9.1904 12.7591 8.30171 11.8744Z" stroke="white" stroke-width="1.1875" stroke-linecap="round" stroke-linejoin="round"/>
</svg>
