<svg width="27" height="26" viewBox="0 0 27 26" fill="none" xmlns="http://www.w3.org/2000/svg">
<path d="M5.19824 25.0819C3.85205 25.0819 2.76074 23.9906 2.76074 22.6444V10.192C2.76074 9.42481 3.12197 8.70236 3.73574 8.24203L12.0374 2.01582C12.904 1.36582 14.0957 1.36582 14.9624 2.01582L23.264 8.24203C23.8777 8.70236 24.239 9.42481 24.239 10.192V22.6444C24.239 23.9906 23.1477 25.0819 21.8015 25.0819H18.6221C17.2759 25.0819 16.1846 23.9906 16.1846 22.6444V18.1227C16.1846 16.7765 15.0933 15.6852 13.7471 15.6852H13.2526C11.9064 15.6852 10.8151 16.7765 10.8151 18.1227V22.6444C10.8151 23.9906 9.72377 25.0819 8.37757 25.0819H5.19824Z" fill="#373DB5"/>
</svg>
