<svg width="27" height="26" viewBox="0 0 27 26" fill="none" xmlns="http://www.w3.org/2000/svg">
<g clip-path="url(#clip0_194_1711)">
<g clip-path="url(#clip1_194_1711)">
<path fill-rule="evenodd" clip-rule="evenodd" d="M0.166748 5.6875C0.166748 5.23877 0.530517 4.875 0.979248 4.875H2.60425C3.05298 4.875 3.41675 5.23877 3.41675 5.6875C3.41675 6.13623 3.05298 6.5 2.60425 6.5H0.979248C0.530517 6.5 0.166748 6.13623 0.166748 5.6875ZM6.66675 5.6875C6.66675 5.23877 7.03052 4.875 7.47925 4.875H22.1042C22.553 4.875 22.9167 5.23877 22.9167 5.6875C22.9167 6.13623 22.553 6.5 22.1042 6.5H7.47925C7.03052 6.5 6.66675 6.13623 6.66675 5.6875ZM0.166748 13C0.166748 12.5513 0.530517 12.1875 0.979248 12.1875H2.60425C3.05298 12.1875 3.41675 12.5513 3.41675 13C3.41675 13.4487 3.05298 13.8125 2.60425 13.8125H0.979248C0.530517 13.8125 0.166748 13.4487 0.166748 13ZM6.66675 13C6.66675 12.5513 7.03052 12.1875 7.47925 12.1875H25.3542C25.803 12.1875 26.1667 12.5513 26.1667 13C26.1667 13.4487 25.803 13.8125 25.3542 13.8125H7.47925C7.03052 13.8125 6.66675 13.4487 6.66675 13ZM0.166748 20.3125C0.166748 19.8638 0.530517 19.5 0.979248 19.5H2.60425C3.05298 19.5 3.41675 19.8638 3.41675 20.3125C3.41675 20.7612 3.05298 21.125 2.60425 21.125H0.979248C0.530517 21.125 0.166748 20.7612 0.166748 20.3125ZM6.66675 20.3125C6.66675 19.8638 7.03052 19.5 7.47925 19.5H17.2292C17.678 19.5 18.0417 19.8638 18.0417 20.3125C18.0417 20.7612 17.678 21.125 17.2292 21.125H7.47925C7.03052 21.125 6.66675 20.7612 6.66675 20.3125Z" fill="#858585"/>
</g>
</g>
<defs>
<clipPath id="clip0_194_1711">
<rect width="26" height="26" fill="white" transform="translate(0.166748)"/>
</clipPath>
<clipPath id="clip1_194_1711">
<rect width="26" height="26" fill="white" transform="translate(0.166748)"/>
</clipPath>
</defs>
</svg>
