<svg width="20" height="20" viewBox="0 0 20 20" fill="none" xmlns="http://www.w3.org/2000/svg">
<path fill-rule="evenodd" clip-rule="evenodd" d="M11.3202 5.88879C10.9494 5.58504 10.4833 5.41699 9.99984 5.41699C9.9653 5.41699 9.93086 5.41785 9.89653 5.41955C9.38161 5.4451 8.89298 5.6609 8.5267 6.02719C8.47786 6.07602 8.4317 6.12704 8.3883 6.18C8.32864 6.25282 8.27421 6.32932 8.22526 6.40892C8.16741 6.50298 8.11722 6.60135 8.07509 6.70307C7.97138 6.95345 7.9165 7.22406 7.9165 7.50033C7.9165 8.05286 8.136 8.58276 8.5267 8.97346C8.9174 9.36417 9.4473 9.58366 9.99984 9.58366C10.2734 9.58366 10.5443 9.52977 10.7971 9.42508C11.0499 9.32038 11.2795 9.16692 11.473 8.97346C11.6664 8.78001 11.8199 8.55034 11.9246 8.29758C12.0293 8.04482 12.0832 7.77391 12.0832 7.50033C12.0832 6.94779 11.8637 6.41789 11.473 6.02719C11.4241 5.97835 11.3731 5.93219 11.3202 5.88879ZM14.1246 3.37554C13.0307 2.28157 11.5469 1.66699 9.99984 1.66699C8.45274 1.66699 6.96901 2.28157 5.87505 3.37554C4.78109 4.4695 4.1665 5.95323 4.1665 7.50033C4.1665 11.8753 9.99984 18.3337 9.99984 18.3337C9.99984 18.3337 15.8332 11.8753 15.8332 7.50033C15.8332 5.95323 15.2186 4.4695 14.1246 3.37554Z" fill="white"/>
</svg>
