<svg width="27" height="26" viewBox="0 0 27 26" fill="none" xmlns="http://www.w3.org/2000/svg">
<g clip-path="url(#clip0_194_1719)">
<path fill-rule="evenodd" clip-rule="evenodd" d="M13.5 26C20.6797 26 26.5 20.1797 26.5 13C26.5 5.8203 20.6797 0 13.5 0C6.3203 0 0.5 5.8203 0.5 13C0.5 20.1797 6.3203 26 13.5 26ZM19.2221 9.47917C19.2221 12.6203 16.6758 15.1667 13.5346 15.1667C10.3935 15.1667 7.84715 12.6203 7.84715 9.47917C7.84715 6.33805 10.3935 3.79167 13.5346 3.79167C16.6758 3.79167 19.2221 6.33805 19.2221 9.47917ZM4.52384 19.9436L4.56714 19.6405C4.81731 17.8893 6.31711 16.5885 8.0861 16.5885H9.97952L11.9445 17.571C12.9452 18.0714 14.1232 18.0714 15.1239 17.571L17.0889 16.5885H18.9827C20.7517 16.5885 22.2515 17.8893 22.5016 19.6405L22.5449 19.9436C20.4648 22.6389 17.2024 24.375 13.5344 24.375C9.86641 24.375 6.60393 22.6389 4.52384 19.9436Z" fill="#858585"/>
</g>
<defs>
<clipPath id="clip0_194_1719">
<rect width="26" height="26" fill="white" transform="translate(0.5)"/>
</clipPath>
</defs>
</svg>
